{"title":"The Wanderers (1979) MP-4 [Dascubadude]","uid":11890473,"size":1145000627,"categoryP":"video","categoryS":"movies","magnet":"?xt=urn:btih:7bc61a19553f88b1a8c57d6deb4aeb1628a42a10&amp;dn=The+Wanderers+%281979%29+MP-4+%5BDascubadude%5D&amp;tr=udp%3A%2F%2Ftracker.openbittorrent.com%3A80&amp;tr=udp%3A%2F%2Fopen.demonii.com%3A1337&amp;tr=udp%3A%2F%2Ftracker.coppersurfer.tk%3A6969&amp;tr=udp%3A%2F%2Fexodus.desync.com%3A6969","seeders":1,"leechers":0,"uploader":"dascuba","files":1,"time":1430986354,"description":" &lt;a href=&quot;http://ia.media-imdb.com/images/M/MV5BMTg1ODU1ODYyN15BMl5BanBnXkFtZTYwODc0NTE5._V1_SY317_CR3,0,214,317_AL_.jpg&quot; rel=&quot;nofollow&quot; target=&quot;_NEW&quot;&gt;http://ia.media-imdb.com/images/M/MV5BMTg1ODU1ODYyN15BMl5BanBnXkFtZTYwODc0NTE5._V1_SY317_CR3,0,214,317_AL_.jpg&lt;/a&gt;\n\nThe Wanderers (1979)\nR  |  117 min  |  Drama  |  4 July 1979 (USA)\n7.5 Your rating:   -/10   Ratings: 7.5/10 from 6,663 users   \nReviews: 52 user | 35 critic\nSet against the urban jungle of 1963 New York's gangland subculture, this coming of age teenage movie is set around the Italian gang the Wanderers. Slight comedy, slight High School angst ... See full summary Â»\n\nDirector: Philip Kaufman\nWriters: Richard Price (novel), Rose Kaufman (screenplay), 1 more credit Â»\nStars: Ken Wahl, Karen Allen, John Friedrich\n\nDVDRIP,Converted to MP-4,Quality Original,Seedbox supported,Please seed! Enjoy!\n\n General\nComplete name                            : C:UsersbillVideosWinXVideosThe WanderersTHE_WANDERERS_Title1.mp4\nFormat                                   : MPEG-4\nFormat profile                           : Base Media\nCodec ID                                 : isom\nFile size                                : 1.07 GiB\nDuration                                 : 1h 56mn\nOverall bit rate                         : 1 306 Kbps\nMovie name                               : THE_WANDERERS\nGenre                                    : Drama\nWriting application                      : Lavf54.6.100\n\nVideo\nID                                       : 1\nFormat                                   : AVC\nFormat/Info                              : Advanced Video Codec\nFormat profile                           : Baseline@L3\nFormat settings, CABAC                   : No\nFormat settings, ReFrames                : 6 frames\nCodec ID                                 : avc1\nCodec ID/Info                            : Advanced Video Coding\nDuration                                 : 1h 56mn\nBit rate                                 : 1 189 Kbps\nWidth                                    : 720 pixels\nHeight                                   : 404 pixels\nDisplay aspect ratio                     : 16:9\nFrame rate mode                          : Constant\nFrame rate                               : 29.970 fps\nColor space                              : YUV\nChroma subsampling                       : 4:2:0\nBit depth                                : 8 bits\nScan type                                : Progressive\nBits/(Pixel*Frame)                       : 0.136\nStream size                              : 994 MiB (91%)\n\nAudio\nID                                       : 2\nFormat                                   : AAC\nFormat/Info                              : Advanced Audio Codec\nFormat profile                           : LC\nCodec ID                                 : 40\nDuration                                 : 1h 56mn\nBit rate mode                            : Constant\nBit rate                                 : 110 Kbps\nChannel(s)                               : 2 channels\nChannel(s)_Original                      : 1 channel\nChannel positions                        : Front: C\nSampling rate                            : 44.1 KHz\nCompression mode                         : Lossy\nStream size                              : 92.2 MiB (8%)","torrent":{"xt":"urn:btih:7bc61a19553f88b1a8c57d6deb4aeb1628a42a10","amp;dn":"The+Wanderers+%281979%29+MP-4+%5BDascubadude%5D","amp;tr":["udp%3A%2F%2Ftracker.openbittorrent.com%3A80","udp%3A%2F%2Fopen.demonii.com%3A1337","udp%3A%2F%2Ftracker.coppersurfer.tk%3A6969","udp%3A%2F%2Fexodus.desync.com%3A6969"],"infoHash":"7bc61a19553f88b1a8c57d6deb4aeb1628a42a10","infoHashBuffer":{"type":"Buffer","data":[123,198,26,25,85,63,136,177,168,197,125,109,235,74,235,22,40,164,42,16]},"announce":[],"urlList":[]}}